<svg width="512" height="512" viewBox="0 0 512 512" fill="none" xmlns="http://www.w3.org/2000/svg">
<path d="M256 48C370.9 48 464 141.1 464 256C464 370.9 370.9 464 256 464C141.1 464 48 370.9 48 256C48 141.1 141.1 48 256 48ZM256 512C397.4 512 512 397.4 512 256C512 114.6 397.4 0 256 0C114.6 0 0 114.6 0 256C0 397.4 114.6 512 256 512ZM167 167C157.6 176.4 157.6 191.6 167 200.9L222 255.9L167 310.9C157.6 320.3 157.6 335.5 167 344.8C176.4 354.1 191.6 354.2 200.9 344.8L255.9 289.8L310.9 344.8C320.3 354.2 335.5 354.2 344.8 344.8C354.1 335.4 354.2 320.2 344.8 310.9L289.8 255.9L344.8 200.9C354.2 191.5 354.2 176.3 344.8 167C335.4 157.7 320.2 157.6 310.9 167L255.9 222L200.9 167C191.5 157.6 176.3 157.6 167 167Z" fill="black"/>
</svg>
