<svg width="512" height="512" viewBox="0 0 512 512" fill="none" xmlns="http://www.w3.org/2000/svg">
<path d="M436.663 74.7001L447.962 85.4001V32.0001C447.962 14.3001 462.262 7.61046e-05 479.962 7.61046e-05C497.662 7.61046e-05 511.962 14.3001 511.962 32.0001V160C511.962 177.7 497.662 192 479.962 192H351.962C334.262 192 319.962 177.7 319.962 160C319.962 142.3 334.262 128 351.962 128H399.862L392.262 120.8C392.062 120.6 391.863 120.4 391.663 120.2C316.663 45.2001 195.162 45.2001 120.162 120.2C45.1625 195.2 45.1625 316.7 120.162 391.7C195.162 466.7 316.663 466.7 391.663 391.7C399.863 383.5 407.162 374.8 413.562 365.6C423.663 351.1 443.663 347.6 458.163 357.7C472.663 367.8 476.162 387.8 466.062 402.3C457.562 414.5 447.862 426.1 436.962 437C336.962 537 174.863 537 74.9625 437C-24.9375 337 -25.0375 175 74.9625 75.0001C174.863 -24.8999 336.663 -24.9999 436.663 74.7001Z" fill="#595959"/>
</svg>
