<svg width="512" height="512" viewBox="0 0 512 512" fill="none" xmlns="http://www.w3.org/2000/svg">
<path d="M464 256C464 370.9 370.9 464 256 464C141.1 464 48 370.9 48 256C48 141.1 141.1 48 256 48C370.9 48 464 141.1 464 256ZM0 256C0 397.4 114.6 512 256 512C397.4 512 512 397.4 512 256C512 114.6 397.4 0 256 0C114.6 0 0 114.6 0 256ZM232 120V256C232 264 236 271.5 242.7 276L338.7 340C349.7 347.4 364.6 344.4 372 333.3C379.4 322.2 376.4 307.4 365.3 300L280 243.2V120C280 106.7 269.3 96 256 96C242.7 96 232 106.7 232 120Z" fill="black"/>
</svg>
