<svg width="512" height="512" viewBox="0 0 512 512" fill="none" xmlns="http://www.w3.org/2000/svg">
<path d="M256 48C370.9 48 464 141.1 464 256C464 370.9 370.9 464 256 464C141.1 464 48 370.9 48 256C48 141.1 141.1 48 256 48ZM256 512C397.4 512 512 397.4 512 256C512 114.6 397.4 0 256 0C114.6 0 0 114.6 0 256C0 397.4 114.6 512 256 512ZM267.3 124.7C261.1 118.5 250.9 118.5 244.7 124.7L140.7 228.7C136.1 233.3 134.8 240.2 137.2 246.1C139.6 252 145.5 256 152 256H224V360C224 373.3 234.7 384 248 384H264C277.3 384 288 373.3 288 360V256H360C366.5 256 372.3 252.1 374.8 246.1C377.3 240.1 375.9 233.2 371.3 228.7L267.3 124.7Z" fill="white"/>
</svg>
