<svg width="512" height="512" viewBox="0 0 512 512" fill="none" xmlns="http://www.w3.org/2000/svg">
<path d="M256 0C291.3 0 320 28.7 320 64C320 99.3 291.3 128 256 128C220.7 128 192 99.3 192 64C192 28.7 220.7 0 256 0ZM352 312C352 337 339.3 359 320 371.9V464C320 490.5 298.5 512 272 512H240C213.5 512 192 490.5 192 464V371.9C172.7 359 160 337 160 312V272C160 219 203 176 256 176C309 176 352 219 352 272V312ZM96 32C126.9 32 152 57.1 152 88C152 118.9 126.9 144 96 144C65.1 144 40 118.9 40 88C40 57.1 65.1 32 96 32ZM112 272V304C112 336.5 124.1 366.1 144 388.7V464C144 465.2 144 466.5 144.1 467.7C135.6 475.3 124.4 480 112 480H80C53.5 480 32 458.5 32 432V375.4C12.9 364.4 0 343.7 0 320V288C0 235 43 192 96 192C108.7 192 120.8 194.5 131.9 198.9C119.3 220.3 112 245.3 112 272ZM368 464V388.7C387.9 366.2 400 336.5 400 304V272C400 245.3 392.7 220.4 380.1 198.9C391.2 194.4 403.3 192 416 192C469 192 512 235 512 288V320C512 343.7 499.1 364.4 480 375.4V432C480 458.5 458.5 480 432 480H400C387.7 480 376.4 475.4 367.9 467.7C367.9 466.5 368 465.2 368 464ZM416 32C446.9 32 472 57.1 472 88C472 118.9 446.9 144 416 144C385.1 144 360 118.9 360 88C360 57.1 385.1 32 416 32Z" fill="black"/>
</svg>
