<svg width="414" height="544" viewBox="0 0 414 544" fill="none" xmlns="http://www.w3.org/2000/svg">
<path d="M335 7.5C374.442 7.5 406.5 39.5579 406.5 79V496.1C406.5 527.712 371.306 546.451 345.04 528.94L345.037 528.938L206.999 436.816L68.9629 528.938L68.96 528.94C42.6767 546.462 7.5 527.591 7.5 496.1V79C7.5 39.5579 39.5579 7.5 79 7.5H335ZM79 70.5C74.3421 70.5 70.5 74.3421 70.5 79V452.192L176.242 381.758L176.249 381.754C194.573 369.576 218.379 369.385 236.875 381.183L237.751 381.754L237.758 381.758L343.5 452.192V79C343.5 74.3421 339.658 70.5 335 70.5H79Z" fill="white" stroke="#4E3C3C" stroke-width="15"/>
</svg>
