<svg width="448" height="448" viewBox="0 0 448 448" fill="none" xmlns="http://www.w3.org/2000/svg">
<path d="M64 0C28.7 0 0 28.7 0 64V384C0 419.3 28.7 448 64 448H384C419.3 448 448 419.3 448 384V64C448 28.7 419.3 0 384 0H64ZM69 170.2H135.5V384H69V170.2ZM140.7 102.5C140.7 123.8 123.5 141 102.2 141C80.9 141 63.7 123.8 63.7 102.5C63.7 81.2 80.9 64 102.2 64C123.5 64 140.7 81.2 140.7 102.5ZM317.9 384V280C317.9 255.2 317.4 223.3 283.4 223.3C248.8 223.3 243.5 250.3 243.5 278.2V384H177.1V170.2H240.8V199.4H241.7C250.6 182.6 272.3 164.9 304.6 164.9C371.8 164.9 384.3 209.2 384.3 266.8V384H317.9Z" fill="black"/>
</svg>
