<svg width="512" height="448" viewBox="0 0 512 448" fill="none" xmlns="http://www.w3.org/2000/svg">
<path d="M352 64H416C433.7 64 448 78.3 448 96V352C448 369.7 433.7 384 416 384H352C334.3 384 320 398.3 320 416C320 433.7 334.3 448 352 448H416C469 448 512 405 512 352V96C512 43 469 0 416 0H352C334.3 0 320 14.3 320 32C320 49.7 334.3 64 352 64ZM342.6 246.6C355.1 234.1 355.1 213.8 342.6 201.3L214.6 73.3C202.1 60.8 181.8 60.8 169.3 73.3C156.8 85.8 156.8 106.1 169.3 118.6L242.7 192H32C14.3 192 0 206.3 0 224C0 241.7 14.3 256 32 256H242.7L169.3 329.4C156.8 341.9 156.8 362.2 169.3 374.7C181.8 387.2 202.1 387.2 214.6 374.7L342.6 246.7V246.6Z" fill="black"/>
</svg>
