<svg width="512" height="385" viewBox="0 0 512 385" fill="none" xmlns="http://www.w3.org/2000/svg">
<path d="M502.6 169.475C515.1 181.975 515.1 202.275 502.6 214.775L342.6 374.775C330.1 387.275 309.8 387.275 297.3 374.775C284.8 362.275 284.8 341.975 297.3 329.475L402.7 224.075H32.0001C14.3001 224.075 9.15527e-05 209.775 9.15527e-05 192.075C9.15527e-05 174.375 14.3001 160.075 32.0001 160.075H402.7L297.3 54.675C284.8 42.175 284.8 21.875 297.3 9.375C309.8 -3.125 330.1 -3.125 342.6 9.375L502.6 169.375V169.475Z" fill="black"/>
</svg>
